<svg width="26" height="22" viewBox="0 0 26 22" fill="none" xmlns="http://www.w3.org/2000/svg">
<path d="M26 2.85026C25.0446 3.2746 24.0169 3.55774 22.933 3.6917C24.035 3.03564 24.8828 1.98926 25.2807 0.753153C24.2495 1.35926 23.107 1.8046 21.8916 2.03922C20.921 1.00733 19.5367 0.367188 18.0028 0.367188C15.0564 0.367188 12.6682 2.74091 12.6682 5.66788C12.6682 6.08208 12.7166 6.48543 12.8075 6.87719C8.37491 6.65415 4.44346 4.54112 1.81335 1.33464C1.35117 2.11815 1.09119 3.03564 1.09119 4.00381C1.09119 5.84384 2.03072 7.46374 3.46349 8.41815C2.58895 8.39136 1.76569 8.14733 1.04497 7.75629C1.04497 7.77222 1.04497 7.79612 1.04497 7.81857C1.04497 10.39 2.88432 12.5313 5.32233 13.0186C4.87676 13.141 4.40591 13.209 3.92062 13.209C3.57615 13.209 3.24034 13.1699 2.91537 13.1113C3.5942 15.2127 5.56354 16.7486 7.89684 16.7943C6.07122 18.2136 3.77185 19.0637 1.27173 19.0637C0.839874 19.0637 0.41741 19.0391 0 18.9884C2.36219 20.4881 5.16707 21.3672 8.17776 21.3672C17.9883 21.3672 23.3554 13.2887 23.3554 6.2805C23.3554 6.05095 23.3482 5.82212 23.3374 5.59619C24.3845 4.85467 25.2872 3.91908 26 2.85026Z" fill="black" fill-opacity="0.4"/>
</svg>
