<svg width="34" height="35" viewBox="0 0 34 35" fill="none" xmlns="http://www.w3.org/2000/svg">
<path fill-rule="evenodd" clip-rule="evenodd" d="M26.2025 30.1143C28.1589 30.1143 29.7441 28.529 29.7441 26.5726V8.15592C29.7441 6.19951 28.1589 4.61426 26.2025 4.61426H7.78581C5.8301 4.61426 4.24414 6.19951 4.24414 8.15592V26.5726C4.24414 28.529 5.8301 30.1143 7.78581 30.1143H26.2025ZM12.0358 13.8226H8.49414V25.8643H12.0358V13.8226ZM10.2345 12.4059H10.2543C11.3523 12.4059 12.0358 11.6175 12.0358 10.6344C12.016 9.62926 11.3523 8.86426 10.2749 8.86426C9.19893 8.86426 8.49414 9.62926 8.49414 10.6344C8.49414 11.6183 9.17768 12.4059 10.2345 12.4059ZM21.9525 25.8643H25.4941L25.4934 18.975C25.4934 15.4163 23.593 13.8226 21.0586 13.8226C19.0129 13.8226 18.2132 14.8851 17.7025 15.6756V13.8226H14.1608V25.8643H17.7025V19.4893C17.7025 19.4302 17.7016 19.3612 17.7006 19.2862C17.6959 18.9216 17.6894 18.4149 17.774 18.2093C18.0531 17.5166 18.6283 16.7997 19.6915 16.7997C21.0848 16.7997 21.9525 17.8622 21.9525 19.4191V25.8643Z" fill="black" fill-opacity="0.4"/>
</svg>
