<svg width="1063" height="149" viewBox="0 0 1063 149" fill="none" xmlns="http://www.w3.org/2000/svg">
<path d="M194.983 148.801H129.982L97.5 84.367L64.9814 19.9331C78.3714 -6.64894 116.592 -6.64894 129.982 19.9331L162.465 84.367L194.947 148.837L194.983 148.801Z" fill="#0176D3"/>
<path d="M97.4836 84.3052L75.6842 127.523C69.1155 140.546 55.6894 148.775 41.0362 148.775H0L32.4825 84.341H97.4836V84.3052Z" fill="#0176D3"/>
<path d="M369.692 83.7171C369.692 58.423 352.007 38.388 326.743 38.388C301.479 38.388 283.541 58.423 283.541 83.7171C283.541 109.011 301.226 129.046 326.743 129.046C352.26 129.046 369.692 109.011 369.692 83.7171ZM261.562 83.7171C261.562 47.9046 288.089 18.6035 323.459 18.6035C342.659 18.6035 359.586 28.3705 367.924 40.3915V21.1079H389.651V124.789C389.651 136.667 379.906 146.326 367.924 146.326V127.043C359.586 139.064 342.659 148.831 323.459 148.831C288.089 148.831 261.562 119.53 261.562 83.7171Z" fill="black"/>
<path d="M425.519 21.095H447.246V45.3873C452.046 29.3594 468.215 19.8428 482.615 19.8428C485.9 19.8428 489.184 20.0932 492.469 20.8445V43.1334C488.426 41.3803 484.889 41.1299 480.594 41.1299C464.678 41.1299 447.246 54.9039 447.246 84.2051V124.776C447.246 136.654 437.501 146.313 425.519 146.313V21.095Z" fill="black"/>
<path d="M498.492 83.7171C498.492 47.4037 526.283 18.6035 564.684 18.6035C590.959 18.6035 611.928 32.1271 623.044 52.162C613.48 57.457 601.714 55.9901 593.413 48.9064C585.942 42.5023 576.089 38.6385 564.684 38.6385C538.409 38.6385 520.472 58.6734 520.472 83.7171C520.472 108.761 538.409 128.796 564.684 128.796C576.125 128.796 585.942 124.932 593.413 118.528C601.714 111.444 613.48 109.941 623.044 115.272C611.928 135.307 590.959 148.831 564.684 148.831C526.283 148.831 498.492 120.03 498.492 83.7171Z" fill="black"/>
<path d="M744.405 83.7171C744.405 58.423 726.72 38.388 701.456 38.388C676.192 38.388 658.254 58.423 658.254 83.7171C658.254 109.011 675.939 129.046 701.456 129.046C726.973 129.046 744.405 109.011 744.405 83.7171ZM636.274 83.7171C636.274 47.9046 662.802 18.6035 698.172 18.6035C717.372 18.6035 734.299 28.3705 742.637 40.3915V21.1079H764.364V124.789C764.364 136.667 754.619 146.326 742.637 146.326V127.043C734.299 139.064 717.372 148.831 698.172 148.831C662.802 148.831 636.274 119.53 636.274 83.7171Z" fill="black"/>
<path d="M800.23 21.1079H821.958V40.3915C830.8 25.3653 845.706 18.6035 862.128 18.6035C890.424 18.6035 909.877 38.1376 909.877 69.1918V125.039C909.877 136.81 900.277 146.326 888.402 146.326V72.4475C888.402 51.4108 876.528 38.388 858.591 38.388C838.379 38.388 821.958 54.9169 821.958 84.218V124.789C821.958 136.667 812.213 146.326 800.23 146.326V21.1079Z" fill="black"/>
<path d="M1042.24 83.7171C1042.24 58.423 1024.55 38.388 999.288 38.388C974.024 38.388 956.086 58.423 956.086 83.7171C956.086 109.011 973.771 129.046 999.288 129.046C1024.8 129.046 1042.24 109.011 1042.24 83.7171ZM934.106 83.7171C934.106 47.9046 960.634 18.6035 996.004 18.6035C1015.2 18.6035 1032.13 28.3705 1040.47 40.3915V21.1079H1062.2V124.789C1062.2 136.667 1052.45 146.326 1040.47 146.326V127.043C1032.13 139.064 1015.2 148.831 996.004 148.831C960.634 148.831 934.106 119.53 934.106 83.7171Z" fill="black"/>
</svg>
